<?xml version="1.0" encoding="UTF-8" standalone="no"?>
<svg
   width="86px"
   height="86px"
   viewBox="0 0 86 86"
   version="1.1"
   id="svg12"
   sodipodi:docname="external-link-icon-green.svg"
   inkscape:version="1.1.1 (3bf5ae0d25, 2021-09-20)"
   xmlns:inkscape="http://www.inkscape.org/namespaces/inkscape"
   xmlns:sodipodi="http://sodipodi.sourceforge.net/DTD/sodipodi-0.dtd"
   xmlns="http://www.w3.org/2000/svg"
   xmlns:svg="http://www.w3.org/2000/svg"
   xmlns:rdf="http://www.w3.org/1999/02/22-rdf-syntax-ns#"
   xmlns:cc="http://creativecommons.org/ns#"
   xmlns:dc="http://purl.org/dc/elements/1.1/">
  <defs
     id="defs16" />
  <sodipodi:namedview
     id="namedview14"
     pagecolor="#ffffff"
     bordercolor="#666666"
     borderopacity="1.0"
     inkscape:pageshadow="2"
     inkscape:pageopacity="0.0"
     inkscape:pagecheckerboard="0"
     showgrid="false"
     inkscape:zoom="8.4534884"
     inkscape:cx="20.819807"
     inkscape:cy="42.940853"
     inkscape:window-width="1920"
     inkscape:window-height="1023"
     inkscape:window-x="0"
     inkscape:window-y="29"
     inkscape:window-maximized="1"
     inkscape:current-layer="Page-1" />
  <!-- Generator: Sketch 52.2 (67145) - http://www.bohemiancoding.com/sketch -->
  <title
     id="title2">external-link-icon</title>
  <desc
     id="desc4">Created with Sketch.</desc>
  <g
     id="Page-1"
     stroke="none"
     stroke-width="1"
     fill="none"
     fill-rule="evenodd"
     style="fill:#7cc442;fill-opacity:1">
    <g
       id="external-link-icon"
       transform="translate(2.000000, 2.000000)"
       fill="#000000"
       stroke="#000000"
       stroke-width="5"
       style="fill:#7cc442;fill-opacity:1;fill-rule:nonzero;stroke:#7cc442;stroke-opacity:1">
      <g
         id="Group"
         style="fill:#7cc442;fill-opacity:1;fill-rule:nonzero;stroke:#7cc442;stroke-opacity:1">
        <path
           d="M74.3,70.7 C74.3,72.7 72.7,74.3 70.7,74.3 L11.3,74.3 C9.3,74.3 7.7,72.7 7.7,70.7 L7.7,11.3 C7.7,9.3 9.3,7.7 11.3,7.7 L34.7,7.7 L34.7,0.5 L11.3,0.5 C5.3,0.5 0.5,5.3 0.5,11.3 L0.5,70.7 C0.5,76.7 5.3,81.5 11.3,81.5 L70.7,81.5 C76.7,81.5 81.5,76.7 81.5,70.7 L81.5,47.3 L74.3,47.3 L74.3,70.7 Z"
           id="Path"
           style="fill:#7cc442;fill-opacity:1;fill-rule:nonzero;stroke:#7cc442;stroke-opacity:1" />
        <polygon
           id="polygon7"
           points="48.9847291 0.5 48.9847291 7.3453202 69.8059113 7.3453202 42.9 34.2512315 47.7487685 39.1 74.6546798 12.1940887 74.6546798 33.0152709 81.5 33.0152709 81.5 0.5"
           style="fill:#7cc442;fill-opacity:1;fill-rule:nonzero;stroke:#7cc442;stroke-opacity:1" />
      </g>
    </g>
  </g>
  <metadata
     id="metadata1122">
    <rdf:RDF>
      <cc:Work
         rdf:about="">
        <dc:title>external-link-icon</dc:title>
      </cc:Work>
    </rdf:RDF>
  </metadata>
</svg>
